<svg width="36" height="32" viewBox="0 0 36 32" fill="none" xmlns="http://www.w3.org/2000/svg">
<g filter="url(#filter0_d_1292_2418)">
<rect x="4" width="28" height="28" rx="14" fill="white" shape-rendering="crispEdges"/>
<path d="M17.7919 2.00253C17.7678 2.0069 17.7437 2.01347 17.7219 2.02003C17.4616 2.07909 17.2778 2.31315 17.2844 2.58003V5.94003C17.2822 6.14128 17.3872 6.3294 17.5622 6.43222C17.7372 6.53284 17.9516 6.53284 18.1266 6.43222C18.3016 6.3294 18.4066 6.14128 18.4044 5.94003V2.58003C18.4109 2.41815 18.3453 2.26284 18.2294 2.15347C18.1112 2.0419 17.9516 1.98722 17.7919 2.00253ZM9.81187 5.29253C9.60187 5.32972 9.43343 5.48284 9.37437 5.68628C9.31531 5.8919 9.37656 6.11065 9.53187 6.25503L11.9119 8.63503C12.0475 8.80128 12.2641 8.87784 12.4741 8.82972C12.6819 8.78159 12.8459 8.61753 12.8941 8.40972C12.9422 8.19972 12.8656 7.98316 12.6994 7.84753L10.3194 5.46753C10.2034 5.34284 10.035 5.2794 9.86437 5.29253C9.84687 5.29253 9.82937 5.29253 9.81187 5.29253ZM25.7019 5.29253C25.575 5.31003 25.4569 5.37347 25.3694 5.46753L22.9894 7.84753C22.8231 7.98316 22.7466 8.19972 22.7947 8.40972C22.8428 8.61753 23.0069 8.78159 23.2147 8.82972C23.4247 8.87784 23.6412 8.80128 23.7769 8.63503L26.1569 6.25503C26.3319 6.08878 26.3822 5.82847 26.2794 5.60972C26.1744 5.38878 25.9425 5.2619 25.7019 5.29253ZM17.7919 8.18003C17.7744 8.18441 17.7569 8.19097 17.7394 8.19753C17.7044 8.19972 17.6694 8.20628 17.6344 8.21503C17.6278 8.22159 17.6234 8.22597 17.6169 8.23253C14.6462 8.35941 12.2444 10.7788 12.2444 13.78C12.2444 16.8622 14.7622 19.38 17.8444 19.38C20.9266 19.38 23.4444 16.8622 23.4444 13.78C23.4444 10.7897 21.0622 8.37909 18.1069 8.23253C18.0872 8.23253 18.0741 8.21503 18.0544 8.21503C17.9975 8.19316 17.9384 8.18222 17.8794 8.18003C17.8684 8.18003 17.8553 8.18003 17.8444 8.18003C17.8269 8.18003 17.8094 8.18003 17.7919 8.18003ZM17.8094 9.30003C17.8203 9.30003 17.8334 9.30003 17.8444 9.30003C17.8619 9.30003 17.8794 9.30003 17.8969 9.30003C20.3469 9.32847 22.3244 11.3235 22.3244 13.78C22.3244 16.2563 20.3206 18.26 17.8444 18.26C15.3703 18.26 13.3644 16.2563 13.3644 13.78C13.3644 11.3169 15.3506 9.31972 17.8094 9.30003ZM6.48687 13.22C6.17843 13.2638 5.96187 13.5503 6.00562 13.8588C6.04937 14.1672 6.33593 14.3838 6.64437 14.34H10.0044C10.2056 14.3422 10.3937 14.2372 10.4966 14.0622C10.5972 13.8872 10.5972 13.6728 10.4966 13.4978C10.3937 13.3228 10.2056 13.2178 10.0044 13.22H6.64437C6.62687 13.22 6.60937 13.22 6.59187 13.22C6.57437 13.22 6.55687 13.22 6.53937 13.22C6.52187 13.22 6.50437 13.22 6.48687 13.22ZM25.5269 13.22C25.2184 13.2638 25.0019 13.5503 25.0456 13.8588C25.0894 14.1672 25.3759 14.3838 25.6844 14.34H29.0444C29.2456 14.3422 29.4337 14.2372 29.5366 14.0622C29.6372 13.8872 29.6372 13.6728 29.5366 13.4978C29.4337 13.3228 29.2456 13.2178 29.0444 13.22H25.6844C25.6669 13.22 25.6494 13.22 25.6319 13.22C25.6144 13.22 25.5969 13.22 25.5794 13.22C25.5619 13.22 25.5444 13.22 25.5269 13.22ZM12.2444 18.75C12.1175 18.7675 11.9994 18.831 11.9119 18.925L9.53187 21.305C9.36562 21.4407 9.28906 21.6572 9.33718 21.8672C9.38531 22.075 9.54937 22.2391 9.75718 22.2872C9.96718 22.3353 10.1837 22.2588 10.3194 22.0925L12.6994 19.7125C12.8656 19.5528 12.9159 19.3057 12.8262 19.0935C12.7387 18.8813 12.5266 18.7457 12.2969 18.75C12.2794 18.75 12.2619 18.75 12.2444 18.75ZM23.2694 18.75C23.0594 18.7872 22.8909 18.9403 22.8319 19.1438C22.7728 19.3494 22.8341 19.5682 22.9894 19.7125L25.3694 22.0925C25.505 22.2588 25.7216 22.3353 25.9316 22.2872C26.1394 22.2391 26.3034 22.075 26.3516 21.8672C26.3997 21.6572 26.3231 21.4407 26.1569 21.305L23.7769 18.925C23.6719 18.8135 23.5275 18.7522 23.3744 18.75C23.3569 18.75 23.3394 18.75 23.3219 18.75C23.3044 18.75 23.2869 18.75 23.2694 18.75ZM17.7919 21.0425C17.7678 21.0469 17.7437 21.0535 17.7219 21.06C17.4616 21.1191 17.2778 21.3532 17.2844 21.62V24.98C17.2822 25.1813 17.3872 25.3694 17.5622 25.4722C17.7372 25.5728 17.9516 25.5728 18.1266 25.4722C18.3016 25.3694 18.4066 25.1813 18.4044 24.98V21.62C18.4109 21.4582 18.3453 21.3028 18.2294 21.1935C18.1112 21.0819 17.9516 21.0272 17.7919 21.0425Z" fill="#3B3735"/>
</g>
<defs>
<filter id="filter0_d_1292_2418" x="0" y="0" width="36" height="36" filterUnits="userSpaceOnUse" color-interpolation-filters="sRGB">
<feFlood flood-opacity="0" result="BackgroundImageFix"/>
<feColorMatrix in="SourceAlpha" type="matrix" values="0 0 0 0 0 0 0 0 0 0 0 0 0 0 0 0 0 0 127 0" result="hardAlpha"/>
<feOffset dy="4"/>
<feGaussianBlur stdDeviation="2"/>
<feComposite in2="hardAlpha" operator="out"/>
<feColorMatrix type="matrix" values="0 0 0 0 0 0 0 0 0 0 0 0 0 0 0 0 0 0 0.12 0"/>
<feBlend mode="normal" in2="BackgroundImageFix" result="effect1_dropShadow_1292_2418"/>
<feBlend mode="normal" in="SourceGraphic" in2="effect1_dropShadow_1292_2418" result="shape"/>
</filter>
</defs>
</svg>
