<svg width="42" height="42" viewBox="0 0 42 42" fill="none" xmlns="http://www.w3.org/2000/svg">
<rect x="8" y="5" width="26" height="28" rx="2" fill="#C3D4FF"/>
<rect x="13" y="33" width="17" height="4" rx="2" fill="#C3D4FF"/>
<path d="M35.25 19.25C35.25 29.0343 28.4057 35.7516 21.7881 38.5879C21.285 38.8035 20.715 38.8035 20.2119 38.5879C13.5943 35.7516 6.75 29.0343 6.75 19.25V10.5C6.75 9.70007 7.22675 8.97735 7.96191 8.66211L20.2119 3.41211C20.715 3.1965 21.285 3.1965 21.7881 3.41211L34.0381 8.66211C34.7733 8.97735 35.25 9.70007 35.25 10.5V19.25Z" stroke="#2563EB" stroke-width="4" stroke-linecap="round" stroke-linejoin="round"/>
<path d="M15.3125 20.345L19.1042 23.4829L26.6875 17.207" stroke="#2563EB" stroke-width="3" stroke-linecap="round" stroke-linejoin="round"/>
</svg>
