<svg width="34" height="34" viewBox="0 0 34 34" fill="none" xmlns="http://www.w3.org/2000/svg">
<path d="M21.59 31.549H21.4058C15.1158 31.549 12.0842 29.0699 11.56 23.5165C11.5033 22.9357 11.9283 22.4115 12.5233 22.3549C13.1042 22.2982 13.6283 22.7374 13.685 23.3182C14.0958 27.7665 16.1925 29.424 21.42 29.424H21.6042C27.37 29.424 29.41 27.384 29.41 21.6182V12.3815C29.41 6.61568 27.37 4.57568 21.6042 4.57568H21.42C16.1642 4.57568 14.0675 6.26152 13.685 10.7949C13.6142 11.3757 13.1325 11.8149 12.5233 11.7582C11.9283 11.7157 11.5033 11.1915 11.5458 10.6107C12.0275 4.97235 15.0733 2.45068 21.4058 2.45068H21.59C28.5458 2.45068 31.5208 5.42568 31.5208 12.3815V21.6182C31.5208 28.574 28.5458 31.549 21.59 31.549Z" fill="white"/>
<path d="M21.08 18.0625H2.83331C2.25248 18.0625 1.77081 17.5808 1.77081 17C1.77081 16.4192 2.25248 15.9375 2.83331 15.9375H21.08C21.6608 15.9375 22.1425 16.4192 22.1425 17C22.1425 17.5808 21.675 18.0625 21.08 18.0625Z" fill="white"/>
<path d="M17.9208 22.8084C17.6517 22.8084 17.3825 22.7093 17.17 22.4968C16.7592 22.0859 16.7592 21.4059 17.17 20.9951L21.165 17.0001L17.17 13.0051C16.7592 12.5943 16.7592 11.9143 17.17 11.5034C17.5808 11.0926 18.2608 11.0926 18.6717 11.5034L23.4175 16.2493C23.8283 16.6601 23.8283 17.3401 23.4175 17.7509L18.6717 22.4968C18.4592 22.7093 18.19 22.8084 17.9208 22.8084Z" fill="white"/>
</svg>
