<svg width="26" height="26" viewBox="0 0 26 26" fill="none" xmlns="http://www.w3.org/2000/svg">
<path d="M2.97912 12.9999C2.97912 12.794 3.05495 12.5882 3.21745 12.4257L9.79329 5.84988C10.1075 5.53572 10.6275 5.53572 10.9416 5.84988C11.2558 6.16405 11.2558 6.68405 10.9416 6.99822L4.93995 12.9999L10.9416 19.0015C11.2558 19.3157 11.2558 19.8357 10.9416 20.1499C10.6275 20.464 10.1075 20.464 9.79329 20.1499L3.21745 13.574C3.05495 13.4115 2.97912 13.2057 2.97912 12.9999Z" fill="white"/>
<path d="M3.16337 13C3.16337 12.5558 3.53171 12.1875 3.97587 12.1875H22.2084C22.6525 12.1875 23.0209 12.5558 23.0209 13C23.0209 13.4442 22.6525 13.8125 22.2084 13.8125H3.97587C3.53171 13.8125 3.16337 13.4442 3.16337 13Z" fill="white"/>
</svg>
