<svg width="41" height="41" viewBox="0 0 41 41" fill="none" xmlns="http://www.w3.org/2000/svg">
<path d="M13.6666 9.82275C12.9662 9.82275 12.3854 9.24192 12.3854 8.5415V3.4165C12.3854 2.71609 12.9662 2.13525 13.6666 2.13525C14.367 2.13525 14.9479 2.71609 14.9479 3.4165V8.5415C14.9479 9.24192 14.367 9.82275 13.6666 9.82275Z" fill="#2563EB"/>
<path d="M27.3334 9.82275C26.633 9.82275 26.0521 9.24192 26.0521 8.5415V3.4165C26.0521 2.71609 26.633 2.13525 27.3334 2.13525C28.0338 2.13525 28.6146 2.71609 28.6146 3.4165V8.5415C28.6146 9.24192 28.0338 9.82275 27.3334 9.82275Z" fill="#2563EB"/>
<path d="M14.5208 24.771C14.2988 24.771 14.0767 24.7197 13.8717 24.6343C13.6496 24.5489 13.4788 24.4293 13.3079 24.2755C13.0004 23.9509 12.8125 23.5239 12.8125 23.0626C12.8125 22.8405 12.8638 22.6185 12.9492 22.4135C13.0346 22.2085 13.1542 22.0206 13.3079 21.8497C13.4788 21.696 13.6496 21.5764 13.8717 21.4909C14.4867 21.2347 15.2554 21.3714 15.7337 21.8497C16.0412 22.1743 16.2292 22.6185 16.2292 23.0626C16.2292 23.1651 16.2121 23.2847 16.195 23.4043C16.1779 23.5068 16.1437 23.6093 16.0925 23.7118C16.0583 23.8143 16.0071 23.9168 15.9388 24.0193C15.8875 24.1047 15.8021 24.1901 15.7337 24.2755C15.4092 24.583 14.965 24.771 14.5208 24.771Z" fill="#2563EB"/>
<path d="M20.5 24.7707C20.2779 24.7707 20.0558 24.7195 19.8508 24.6341C19.6287 24.5487 19.4579 24.4291 19.287 24.2753C18.9795 23.9507 18.7916 23.5237 18.7916 23.0624C18.7916 22.8403 18.8429 22.6182 18.9283 22.4132C19.0137 22.2082 19.1333 22.0203 19.287 21.8495C19.4579 21.6958 19.6287 21.5761 19.8508 21.4907C20.4658 21.2174 21.2345 21.3712 21.7129 21.8495C22.0204 22.1741 22.2083 22.6182 22.2083 23.0624C22.2083 23.1649 22.1912 23.2845 22.1741 23.4041C22.157 23.5066 22.1229 23.6091 22.0716 23.7116C22.0375 23.8141 21.9862 23.9166 21.9179 24.0191C21.8666 24.1045 21.7812 24.1899 21.7129 24.2753C21.3883 24.5828 20.9441 24.7707 20.5 24.7707Z" fill="#2563EB"/>
<path d="M26.4792 24.7707C26.2571 24.7707 26.035 24.7195 25.83 24.6341C25.608 24.5487 25.4371 24.4291 25.2663 24.2753C25.198 24.1899 25.1296 24.1045 25.0613 24.0191C24.993 23.9166 24.9417 23.8141 24.9075 23.7116C24.8563 23.6091 24.8221 23.5066 24.805 23.4041C24.788 23.2845 24.7709 23.1649 24.7709 23.0624C24.7709 22.6182 24.9588 22.1741 25.2663 21.8495C25.4371 21.6958 25.608 21.5761 25.83 21.4907C26.4621 21.2174 27.2138 21.3712 27.6921 21.8495C27.9996 22.1741 28.1875 22.6182 28.1875 23.0624C28.1875 23.1649 28.1705 23.2845 28.1534 23.4041C28.1363 23.5066 28.1021 23.6091 28.0509 23.7116C28.0167 23.8141 27.9655 23.9166 27.8971 24.0191C27.8459 24.1045 27.7605 24.1899 27.6921 24.2753C27.3675 24.5828 26.9234 24.7707 26.4792 24.7707Z" fill="#2563EB"/>
<path d="M14.5208 30.7498C14.2988 30.7498 14.0767 30.6986 13.8717 30.6131C13.6667 30.5277 13.4788 30.4081 13.3079 30.2544C13.0004 29.9298 12.8125 29.4856 12.8125 29.0415C12.8125 28.8194 12.8638 28.5973 12.9492 28.3923C13.0346 28.1702 13.1542 27.9823 13.3079 27.8286C13.94 27.1965 15.1017 27.1965 15.7337 27.8286C16.0412 28.1531 16.2292 28.5973 16.2292 29.0415C16.2292 29.4856 16.0412 29.9298 15.7337 30.2544C15.4092 30.5619 14.965 30.7498 14.5208 30.7498Z" fill="#2563EB"/>
<path d="M20.5 30.7498C20.0558 30.7498 19.6116 30.5619 19.287 30.2544C18.9795 29.9298 18.7916 29.4856 18.7916 29.0415C18.7916 28.8194 18.8429 28.5973 18.9283 28.3923C19.0137 28.1702 19.1333 27.9823 19.287 27.8286C19.9191 27.1965 21.0808 27.1965 21.7129 27.8286C21.8666 27.9823 21.9862 28.1702 22.0716 28.3923C22.157 28.5973 22.2083 28.8194 22.2083 29.0415C22.2083 29.4856 22.0204 29.9298 21.7129 30.2544C21.3883 30.5619 20.9441 30.7498 20.5 30.7498Z" fill="#2563EB"/>
<path d="M26.4792 30.7502C26.035 30.7502 25.5909 30.5623 25.2663 30.2548C25.1125 30.101 24.993 29.9131 24.9075 29.6911C24.8221 29.4861 24.7709 29.264 24.7709 29.0419C24.7709 28.8198 24.8221 28.5977 24.9075 28.3927C24.993 28.1706 25.1125 27.9827 25.2663 27.829C25.6592 27.4361 26.2571 27.2481 26.8038 27.3677C26.9234 27.3848 27.0259 27.4189 27.1284 27.4702C27.2309 27.5044 27.3334 27.5557 27.4359 27.624C27.5213 27.6752 27.6067 27.7606 27.6921 27.829C27.9996 28.1536 28.1875 28.5977 28.1875 29.0419C28.1875 29.4861 27.9996 29.9302 27.6921 30.2548C27.3675 30.5623 26.9234 30.7502 26.4792 30.7502Z" fill="#2563EB"/>
<path d="M35.0208 16.8101H5.97913C5.27871 16.8101 4.69788 16.2292 4.69788 15.5288C4.69788 14.8284 5.27871 14.2476 5.97913 14.2476H35.0208C35.7212 14.2476 36.302 14.8284 36.302 15.5288C36.302 16.2292 35.7212 16.8101 35.0208 16.8101Z" fill="#2563EB"/>
<path d="M27.3333 38.8644H13.6667C7.43125 38.8644 3.84375 35.2769 3.84375 29.0415V14.5207C3.84375 8.28525 7.43125 4.69775 13.6667 4.69775H27.3333C33.5688 4.69775 37.1563 8.28525 37.1563 14.5207V29.0415C37.1563 35.2769 33.5688 38.8644 27.3333 38.8644ZM13.6667 7.26025C8.78083 7.26025 6.40625 9.63484 6.40625 14.5207V29.0415C6.40625 33.9273 8.78083 36.3019 13.6667 36.3019H27.3333C32.2192 36.3019 34.5938 33.9273 34.5938 29.0415V14.5207C34.5938 9.63484 32.2192 7.26025 27.3333 7.26025H13.6667Z" fill="#2563EB"/>
</svg>
