<svg width="34" height="34" viewBox="0 0 34 34" fill="none" xmlns="http://www.w3.org/2000/svg">
<path d="M11.3334 8.146C10.7525 8.146 10.2709 7.66433 10.2709 7.0835V2.8335C10.2709 2.25266 10.7525 1.771 11.3334 1.771C11.9142 1.771 12.3959 2.25266 12.3959 2.8335V7.0835C12.3959 7.66433 11.9142 8.146 11.3334 8.146Z" fill="white"/>
<path d="M22.6666 8.146C22.0858 8.146 21.6041 7.66433 21.6041 7.0835V2.8335C21.6041 2.25266 22.0858 1.771 22.6666 1.771C23.2475 1.771 23.7291 2.25266 23.7291 2.8335V7.0835C23.7291 7.66433 23.2475 8.146 22.6666 8.146Z" fill="white"/>
<path d="M12.0417 20.5416C11.8575 20.5416 11.6733 20.4991 11.5033 20.4283C11.3192 20.3575 11.1775 20.2583 11.0358 20.1308C10.7808 19.8616 10.625 19.4933 10.625 19.1249C10.625 18.7566 10.7808 18.3883 11.0358 18.1191C11.1775 17.9916 11.3333 17.8924 11.5033 17.8216C11.8433 17.6799 12.24 17.6799 12.58 17.8216C12.75 17.8924 12.9058 17.9916 13.0475 18.1191C13.1042 18.1899 13.175 18.2608 13.2175 18.3316C13.2741 18.4166 13.3167 18.5016 13.345 18.5866C13.3875 18.6716 13.4158 18.7566 13.43 18.8416C13.4442 18.9408 13.4583 19.0399 13.4583 19.1249C13.4583 19.4933 13.3025 19.8616 13.0475 20.1308C12.9058 20.2583 12.75 20.3575 12.58 20.4283C12.41 20.4991 12.2258 20.5416 12.0417 20.5416Z" fill="white"/>
<path d="M17 20.5417C16.8159 20.5417 16.6317 20.4992 16.4617 20.4284C16.2775 20.3575 16.1359 20.2583 15.9942 20.1308C15.7392 19.8617 15.5834 19.4934 15.5834 19.125C15.5834 19.04 15.5975 18.9408 15.6117 18.8417C15.6259 18.7567 15.6542 18.6717 15.6967 18.5867C15.725 18.5017 15.7676 18.4167 15.8242 18.3317C15.8809 18.2609 15.9376 18.19 15.9942 18.1192C16.5184 17.595 17.4675 17.595 18.0059 18.1192C18.0625 18.19 18.1192 18.2609 18.1759 18.3317C18.2325 18.4167 18.2751 18.5017 18.3034 18.5867C18.3459 18.6717 18.3742 18.7567 18.3884 18.8417C18.4026 18.9408 18.4167 19.04 18.4167 19.125C18.4167 19.4934 18.2609 19.8617 18.0059 20.1308C17.7367 20.3858 17.3825 20.5417 17 20.5417Z" fill="white"/>
<path d="M12.0417 25.5001C11.8575 25.5001 11.6733 25.4576 11.5033 25.3868C11.3333 25.3159 11.1775 25.2168 11.0358 25.0893C10.7808 24.8201 10.625 24.4518 10.625 24.0834C10.625 23.9984 10.6392 23.8993 10.6533 23.8143C10.6675 23.7151 10.6958 23.6301 10.7383 23.5451C10.7666 23.4601 10.8092 23.3751 10.8659 23.2901C10.9084 23.2193 10.9792 23.1484 11.0358 23.0776C11.1775 22.9501 11.3333 22.8509 11.5033 22.7801C11.8433 22.6384 12.24 22.6384 12.58 22.7801C12.75 22.8509 12.9058 22.9501 13.0475 23.0776C13.1042 23.1484 13.175 23.2193 13.2175 23.2901C13.2741 23.3751 13.3167 23.4601 13.345 23.5451C13.3875 23.6301 13.4158 23.7151 13.43 23.8143C13.4442 23.8993 13.4583 23.9984 13.4583 24.0834C13.4583 24.4518 13.3025 24.8201 13.0475 25.0893C12.9058 25.2168 12.75 25.3159 12.58 25.3868C12.41 25.4576 12.2258 25.5001 12.0417 25.5001Z" fill="white"/>
<path d="M29.0416 13.9399H4.95831C4.37748 13.9399 3.89581 13.4583 3.89581 12.8774C3.89581 12.2966 4.37748 11.8149 4.95831 11.8149H29.0416C29.6225 11.8149 30.1041 12.2966 30.1041 12.8774C30.1041 13.4583 29.6225 13.9399 29.0416 13.9399Z" fill="white"/>
<path d="M22.4117 32.2718C21.8734 32.2718 21.3634 32.0734 20.995 31.7051C20.5559 31.2659 20.3575 30.6284 20.4567 29.9626L20.7259 28.0501C20.7967 27.5543 21.0942 26.9593 21.4484 26.6051L26.4634 21.5901C27.1434 20.9101 27.8092 20.5559 28.5317 20.4851C29.4242 20.4001 30.2884 20.7684 31.11 21.5901C31.9742 22.4543 33.1359 24.2109 31.11 26.2368L26.095 31.2518C25.7409 31.6059 25.1459 31.9035 24.65 31.9743L22.7375 32.2435C22.6242 32.2576 22.525 32.2718 22.4117 32.2718ZM28.7725 22.596C28.7584 22.596 28.7442 22.596 28.73 22.596C28.5317 22.6101 28.2625 22.7943 27.965 23.0918L22.95 28.1068C22.9075 28.1493 22.8367 28.291 22.8367 28.3476L22.5817 30.1185L24.3525 29.8634C24.4092 29.8493 24.5508 29.7784 24.5933 29.7359L29.6084 24.721C30.2317 24.0976 30.3167 23.786 29.6084 23.0776C29.3817 22.8651 29.0559 22.596 28.7725 22.596Z" fill="white"/>
<path d="M29.6368 27.2708C29.5376 27.2708 29.4384 27.2567 29.3534 27.2283C27.4834 26.7042 25.9959 25.2167 25.4718 23.3467C25.3159 22.78 25.6417 22.1991 26.2084 22.0291C26.7751 21.8733 27.3559 22.1992 27.5259 22.7658C27.8517 23.9275 28.7726 24.8483 29.9343 25.1741C30.5009 25.33 30.8267 25.925 30.6709 26.4917C30.5292 26.9592 30.1043 27.2708 29.6368 27.2708Z" fill="white"/>
<path d="M17 32.2293H11.3333C6.1625 32.2293 3.1875 29.2543 3.1875 24.0835V12.0418C3.1875 6.871 6.1625 3.896 11.3333 3.896H22.6667C27.8375 3.896 30.8125 6.871 30.8125 12.0418V17.0002C30.8125 17.581 30.3308 18.0627 29.75 18.0627C29.1692 18.0627 28.6875 17.581 28.6875 17.0002V12.0418C28.6875 7.99016 26.7183 6.021 22.6667 6.021H11.3333C7.28167 6.021 5.3125 7.99016 5.3125 12.0418V24.0835C5.3125 28.1352 7.28167 30.1043 11.3333 30.1043H17C17.5808 30.1043 18.0625 30.586 18.0625 31.1668C18.0625 31.7477 17.5808 32.2293 17 32.2293Z" fill="white"/>
</svg>
