<svg width="41" height="41" viewBox="0 0 41 41" fill="none" xmlns="http://www.w3.org/2000/svg">
<path d="M20.5 38.8644C10.3696 38.8644 2.13544 30.6303 2.13544 20.4998C2.13544 10.3694 10.3696 2.13525 20.5 2.13525C30.6304 2.13525 38.8646 10.3694 38.8646 20.4998C38.8646 30.6303 30.6304 38.8644 20.5 38.8644ZM20.5 4.69775C11.7875 4.69775 4.69794 11.7873 4.69794 20.4998C4.69794 29.2123 11.7875 36.3019 20.5 36.3019C29.2125 36.3019 36.3021 29.2123 36.3021 20.4998C36.3021 11.7873 29.2125 4.69775 20.5 4.69775Z" fill="#2563EB"/>
<path d="M26.8379 27.2138C26.6158 27.2138 26.3938 27.1625 26.1888 27.0258L20.8929 23.8654C19.5775 23.0796 18.6038 21.3542 18.6038 19.8338V12.8296C18.6038 12.1292 19.1846 11.5483 19.885 11.5483C20.5854 11.5483 21.1663 12.1292 21.1663 12.8296V19.8338C21.1663 20.4488 21.6788 21.3542 22.2083 21.6617L27.5042 24.8221C28.1192 25.1808 28.3071 25.9667 27.9483 26.5817C27.6921 26.9917 27.265 27.2138 26.8379 27.2138Z" fill="#2563EB"/>
</svg>
