<svg width="20" height="20" viewBox="0 0 20 20" fill="none" xmlns="http://www.w3.org/2000/svg">
<path d="M9.99996 18.9582C5.05829 18.9582 1.04163 14.9415 1.04163 9.99984C1.04163 5.05817 5.05829 1.0415 9.99996 1.0415C14.9416 1.0415 18.9583 5.05817 18.9583 9.99984C18.9583 14.9415 14.9416 18.9582 9.99996 18.9582ZM9.99996 2.2915C5.74996 2.2915 2.29163 5.74984 2.29163 9.99984C2.29163 14.2498 5.74996 17.7082 9.99996 17.7082C14.25 17.7082 17.7083 14.2498 17.7083 9.99984C17.7083 5.74984 14.25 2.2915 9.99996 2.2915Z" fill="#3B3735"/>
<path d="M10.2002 13.9582C8.01682 13.9582 6.24182 12.1832 6.24182 9.99984C6.24182 7.8165 8.01682 6.0415 10.2002 6.0415C11.1585 6.0415 12.0918 6.39151 12.8085 7.03317C13.0668 7.25817 13.0918 7.65817 12.8668 7.9165C12.6418 8.17484 12.2418 8.19984 11.9835 7.97484C11.4918 7.54151 10.8585 7.29985 10.2002 7.29985C8.70849 7.29985 7.49182 8.51651 7.49182 10.0082C7.49182 11.4998 8.70849 12.7165 10.2002 12.7165C10.8502 12.7165 11.4918 12.4748 11.9835 12.0415C12.2418 11.8165 12.6418 11.8415 12.8668 12.0999C13.0918 12.3582 13.0668 12.7582 12.8085 12.9832C12.0835 13.6082 11.1585 13.9582 10.2002 13.9582Z" fill="#3B3735"/>
</svg>
