<svg width="34" height="34" viewBox="0 0 34 34" fill="none" xmlns="http://www.w3.org/2000/svg">
<path d="M19.2241 31.7049C18.8983 31.7049 18.5724 31.6483 18.2608 31.5349C17.1983 31.1383 16.5183 30.1466 16.5183 29.0133V19.8758H13.2033C12.1266 19.8758 11.1916 19.2666 10.7524 18.2891C10.3133 17.3116 10.4832 16.2066 11.1916 15.3991L21.9158 3.21576C22.6666 2.36576 23.8283 2.06826 24.8908 2.47909C25.9533 2.87576 26.6332 3.86743 26.6332 5.00076V14.1383H29.9483C31.0249 14.1383 31.9599 14.7474 32.3991 15.7249C32.8383 16.7024 32.6683 17.8074 31.9599 18.6149L21.2357 30.7983C20.7116 31.3933 19.9749 31.7049 19.2241 31.7049ZM23.9133 4.41993C23.7858 4.41993 23.6299 4.46243 23.5024 4.61826L12.7782 16.8158C12.5516 17.0708 12.6366 17.3258 12.6791 17.4249C12.7216 17.5241 12.8633 17.7649 13.2033 17.7649H17.5808C18.1616 17.7649 18.6433 18.2466 18.6433 18.8274V29.0274C18.6433 29.3816 18.8983 29.5233 19.0116 29.5658C19.1249 29.6083 19.4082 29.6791 19.6349 29.4099L30.3591 17.2124C30.5857 16.9574 30.5008 16.7024 30.4583 16.6033C30.4158 16.5041 30.2741 16.2633 29.9341 16.2633H25.5566C24.9758 16.2633 24.4941 15.7816 24.4941 15.2008V5.00076C24.4941 4.64659 24.2391 4.50493 24.1258 4.46243C24.0833 4.43409 23.9983 4.41993 23.9133 4.41993Z" fill="#2563EB"/>
<path d="M12.0417 6.729H2.125C1.54417 6.729 1.0625 6.24734 1.0625 5.6665C1.0625 5.08567 1.54417 4.604 2.125 4.604H12.0417C12.6225 4.604 13.1042 5.08567 13.1042 5.6665C13.1042 6.24734 12.6225 6.729 12.0417 6.729Z" fill="#2563EB"/>
<path d="M10.625 29.396H2.125C1.54417 29.396 1.0625 28.9143 1.0625 28.3335C1.0625 27.7527 1.54417 27.271 2.125 27.271H10.625C11.2058 27.271 11.6875 27.7527 11.6875 28.3335C11.6875 28.9143 11.2058 29.396 10.625 29.396Z" fill="#2563EB"/>
<path d="M6.375 18.0625H2.125C1.54417 18.0625 1.0625 17.5808 1.0625 17C1.0625 16.4192 1.54417 15.9375 2.125 15.9375H6.375C6.95583 15.9375 7.4375 16.4192 7.4375 17C7.4375 17.5808 6.95583 18.0625 6.375 18.0625Z" fill="#2563EB"/>
</svg>
