<svg width="41" height="41" viewBox="0 0 41 41" fill="none" xmlns="http://www.w3.org/2000/svg">
<path fill-rule="evenodd" clip-rule="evenodd" d="M37.2744 27.4735V40.6797C37.2744 40.8565 37.0811 41 36.8429 41H33.4993C33.2611 41 33.0634 40.8532 33.0634 40.6764V31.1804H8.4265V40.6797C8.4265 40.8565 8.23326 41 7.99507 41H4.65143C4.41324 41 4.2155 40.8532 4.2155 40.6764V27.4735H2.76389C1.99989 27.4735 1.30779 27.2432 0.808944 26.8729C0.310095 26.5025 0 25.9887 0 25.4215V23.3595C0 22.7922 0.310095 22.2784 0.808944 21.908C1.30779 21.5377 1.99989 21.3075 2.76389 21.3075H6.14798V13.4832H2.90321C2.13921 13.4832 1.44711 13.2529 0.948263 12.8826C0.449414 12.5122 0.139318 11.9984 0.139318 11.4312V3.58016C0.139318 3.01294 0.449414 2.49911 0.948263 2.12874C1.44711 1.75838 2.13921 1.52816 2.90321 1.52816H6.14798V0.343669C6.14798 0.153483 6.35471 0 6.61087 0H9.67138C9.92755 0 10.1343 0.153483 10.1343 0.343669V1.52816H30.7264V0.343669C30.7264 0.153483 30.9331 0 31.1893 0H34.2498C34.506 0 34.7127 0.153483 34.7127 0.343669V1.52816H38.2361C39.0001 1.52816 39.6922 1.75838 40.1911 2.12874C40.6899 2.49911 41 3.01294 41 3.58016V11.4312C41 11.9984 40.6899 12.5122 40.1911 12.8826C39.6922 13.2529 39.0001 13.4832 38.2361 13.4832H34.7127V21.3041H38.0968C38.8608 21.3041 39.5529 21.5343 40.0517 21.9047C40.5506 22.2751 40.8607 22.7889 40.8607 23.3561V25.4181C40.8607 25.9854 40.5506 26.4992 40.0517 26.8695C39.5529 27.2399 38.8608 27.4701 38.0968 27.4701H37.2744V27.4735ZM2.41785 23.1759H38.8114V25.7651H2.41785V23.1759ZM2.56166 3.49007H38.3754V11.2577H2.56166V3.49007ZM33.0634 29.749V27.4735H8.4265V29.749H33.0634ZM30.7309 21.3075V13.4832H10.1388V21.3041H30.7309V21.3075Z" fill="#2563EB"/>
</svg>
