<svg width="34" height="34" viewBox="0 0 34 34" fill="none" xmlns="http://www.w3.org/2000/svg">
<path d="M17 1.35986C25.638 1.35986 32.64 8.36182 32.64 16.9999C32.64 25.6379 25.638 32.6399 17 32.6399C8.36195 32.6399 1.35999 25.6379 1.35999 16.9999C1.35999 8.36182 8.36195 1.35986 17 1.35986ZM22.3951 23.3749C22.6827 22.4922 24.0305 13.6957 24.1971 11.9624C24.2474 11.4375 24.0815 11.0886 23.7565 10.9329C23.3634 10.7439 22.7813 10.8384 22.1061 11.0818C21.1799 11.4157 9.33979 16.4429 8.65571 16.734C8.00699 17.0094 7.39363 17.3099 7.39363 17.7451C7.39363 18.0511 7.57519 18.2232 8.07567 18.402C8.59655 18.5877 9.90827 18.9855 10.6828 19.199C11.4287 19.405 12.2781 19.2262 12.7541 18.9304C13.2586 18.6169 19.0815 14.7205 19.4997 14.3791C19.9172 14.0378 20.2504 14.475 19.909 14.8171C19.5677 15.1584 15.5706 19.0378 15.0436 19.575C14.4037 20.2271 14.858 20.9031 15.2871 21.1737C15.7773 21.4824 19.3031 23.8475 19.8342 24.2269C20.3653 24.6063 20.9039 24.7784 21.3969 24.7784C21.8899 24.7784 22.1496 24.129 22.3951 23.3749Z" fill="#3B3735"/>
</svg>
