<svg width="34" height="34" viewBox="0 0 34 34" fill="none" xmlns="http://www.w3.org/2000/svg">
<g clip-path="url(#clip0_424_2259)">
<path d="M24.7917 9.2085H24.8059M9.91671 2.8335H24.0834C27.9954 2.8335 31.1667 6.00481 31.1667 9.91683V24.0835C31.1667 27.9955 27.9954 31.1668 24.0834 31.1668H9.91671C6.00469 31.1668 2.83337 27.9955 2.83337 24.0835V9.91683C2.83337 6.00481 6.00469 2.8335 9.91671 2.8335ZM22.6667 16.1077C22.8415 17.2867 22.6402 18.4908 22.0912 19.5488C21.5422 20.6067 20.6737 21.4647 19.609 22.0005C18.5444 22.5364 17.3378 22.7229 16.1611 22.5336C14.9843 22.3442 13.8972 21.7886 13.0544 20.9458C12.2116 20.103 11.656 19.0159 11.4666 17.8391C11.2773 16.6624 11.4638 15.4558 11.9997 14.3912C12.5355 13.3265 13.3935 12.458 14.4514 11.909C15.5094 11.36 16.7135 11.1587 17.8925 11.3335C19.0952 11.5118 20.2086 12.0722 21.0683 12.9319C21.928 13.7916 22.4884 14.905 22.6667 16.1077Z" stroke="#1E1E1E" stroke-width="4" stroke-linecap="round" stroke-linejoin="round"/>
</g>
<defs>
<clipPath id="clip0_424_2259">
<rect width="34" height="34" fill="white"/>
</clipPath>
</defs>
</svg>
