<svg width="41" height="41" viewBox="0 0 41 41" fill="none" xmlns="http://www.w3.org/2000/svg">
<path d="M20.5342 35.072C16.5538 35.072 12.5733 34.4399 8.79792 33.1758C7.36292 32.6804 6.26958 31.6724 5.79125 30.357C5.29583 29.0416 5.46667 27.5895 6.2525 26.2912L8.21708 23.0283C8.62708 22.3449 9.00292 20.9783 9.00292 20.1754V15.2383C9.00292 8.88328 14.1792 3.70703 20.5342 3.70703C26.8892 3.70703 32.0654 8.88328 32.0654 15.2383V20.1754C32.0654 20.9612 32.4412 22.3449 32.8512 23.0454L34.7988 26.2912C35.5333 27.5212 35.67 29.0074 35.1746 30.357C34.6792 31.7066 33.6029 32.7316 32.2533 33.1758C28.495 34.4399 24.5146 35.072 20.5342 35.072ZM20.5342 6.26953C15.5971 6.26953 11.5654 10.2841 11.5654 15.2383V20.1754C11.5654 21.4224 11.0529 23.2674 10.4208 24.3437L8.45625 27.6066C8.08042 28.2387 7.97792 28.9049 8.2 29.4687C8.405 30.0495 8.9175 30.4937 9.61792 30.7329C16.7588 33.1245 24.3267 33.1245 31.4675 30.7329C32.0825 30.5279 32.5608 30.0666 32.7829 29.4516C33.005 28.8366 32.9538 28.1704 32.6121 27.6066L30.6475 24.3437C29.9983 23.2333 29.5029 21.4054 29.5029 20.1583V15.2383C29.5029 10.2841 25.4883 6.26953 20.5342 6.26953Z" fill="#2563EB"/>
<path d="M23.7116 6.73063C23.5921 6.73063 23.4725 6.71354 23.3529 6.67937C22.8575 6.54271 22.3791 6.44021 21.9179 6.37188C20.4658 6.18396 19.065 6.28646 17.7496 6.67937C17.2712 6.83312 16.7587 6.67937 16.4341 6.32062C16.1096 5.96187 16.0071 5.44938 16.195 4.98813C16.8954 3.19438 18.6037 2.01562 20.5512 2.01562C22.4987 2.01562 24.2071 3.17729 24.9075 4.98813C25.0783 5.44938 24.9929 5.96187 24.6683 6.32062C24.4121 6.59396 24.0533 6.73063 23.7116 6.73063Z" fill="#2563EB"/>
<path d="M20.5342 38.9673C18.8429 38.9673 17.2029 38.284 16.0071 37.0881C14.8113 35.8923 14.1279 34.2523 14.1279 32.561H16.6904C16.6904 33.569 17.1004 34.5598 17.8179 35.2773C18.5354 35.9948 19.5263 36.4048 20.5342 36.4048C22.6525 36.4048 24.3779 34.6794 24.3779 32.561H26.9404C26.9404 36.0973 24.0704 38.9673 20.5342 38.9673Z" fill="#2563EB"/>
</svg>
