<svg width="24" height="24" viewBox="0 0 24 24" fill="none" xmlns="http://www.w3.org/2000/svg">
<path d="M11.7919 0.00252968C11.7678 0.00690496 11.7437 0.013467 11.7219 0.0200297C11.4616 0.0790923 11.2778 0.313155 11.2844 0.58003V3.94003C11.2822 4.14128 11.3872 4.3294 11.5622 4.43222C11.7372 4.53284 11.9516 4.53284 12.1266 4.43222C12.3016 4.3294 12.4066 4.14128 12.4044 3.94003V0.58003C12.4109 0.418155 12.3453 0.262842 12.2294 0.153467C12.1112 0.0419048 11.9516 -0.012783 11.7919 0.00252968ZM3.81187 3.29253C3.60187 3.32972 3.43343 3.48284 3.37437 3.68628C3.31531 3.8919 3.37656 4.11065 3.53187 4.25503L5.91187 6.63503C6.04749 6.80128 6.26406 6.87784 6.47406 6.82972C6.68187 6.78159 6.84593 6.61753 6.89406 6.40972C6.94218 6.19972 6.86562 5.98316 6.69937 5.84753L4.31937 3.46753C4.20343 3.34284 4.03499 3.2794 3.86437 3.29253C3.84687 3.29253 3.82937 3.29253 3.81187 3.29253ZM19.7019 3.29253C19.575 3.31003 19.4569 3.37347 19.3694 3.46753L16.9894 5.84753C16.8231 5.98316 16.7466 6.19972 16.7947 6.40972C16.8428 6.61753 17.0069 6.78159 17.2147 6.82972C17.4247 6.87784 17.6412 6.80128 17.7769 6.63503L20.1569 4.25503C20.3319 4.08878 20.3822 3.82847 20.2794 3.60972C20.1744 3.38878 19.9425 3.2619 19.7019 3.29253ZM11.7919 6.18003C11.7744 6.18441 11.7569 6.19097 11.7394 6.19753C11.7044 6.19972 11.6694 6.20628 11.6344 6.21503C11.6278 6.22159 11.6234 6.22597 11.6169 6.23253C8.64624 6.35941 6.24437 8.77878 6.24437 11.78C6.24437 14.8622 8.76218 17.38 11.8444 17.38C14.9266 17.38 17.4444 14.8622 17.4444 11.78C17.4444 8.78972 15.0622 6.37909 12.1069 6.23253C12.0872 6.23253 12.0741 6.21503 12.0544 6.21503C11.9975 6.19316 11.9384 6.18222 11.8794 6.18003C11.8684 6.18003 11.8553 6.18003 11.8444 6.18003C11.8269 6.18003 11.8094 6.18003 11.7919 6.18003ZM11.8094 7.30003C11.8203 7.30003 11.8334 7.30003 11.8444 7.30003C11.8619 7.30003 11.8794 7.30003 11.8969 7.30003C14.3469 7.32847 16.3244 9.32347 16.3244 11.78C16.3244 14.2563 14.3206 16.26 11.8444 16.26C9.37031 16.26 7.36437 14.2563 7.36437 11.78C7.36437 9.3169 9.35062 7.31972 11.8094 7.30003ZM0.486869 11.22C0.178432 11.2638 -0.038131 11.5503 0.00561897 11.8588C0.049369 12.1672 0.335932 12.3838 0.644369 12.34H4.00437C4.20562 12.3422 4.39374 12.2372 4.49656 12.0622C4.59718 11.8872 4.59718 11.6728 4.49656 11.4978C4.39374 11.3228 4.20562 11.2178 4.00437 11.22H0.644369C0.626869 11.22 0.609369 11.22 0.591869 11.22C0.574369 11.22 0.556869 11.22 0.539369 11.22C0.521869 11.22 0.504369 11.22 0.486869 11.22ZM19.5269 11.22C19.2184 11.2638 19.0019 11.5503 19.0456 11.8588C19.0894 12.1672 19.3759 12.3838 19.6844 12.34H23.0444C23.2456 12.3422 23.4337 12.2372 23.5366 12.0622C23.6372 11.8872 23.6372 11.6728 23.5366 11.4978C23.4337 11.3228 23.2456 11.2178 23.0444 11.22H19.6844C19.6669 11.22 19.6494 11.22 19.6319 11.22C19.6144 11.22 19.5969 11.22 19.5794 11.22C19.5619 11.22 19.5444 11.22 19.5269 11.22ZM6.24437 16.75C6.11749 16.7675 5.99937 16.831 5.91187 16.925L3.53187 19.305C3.36562 19.4407 3.28906 19.6572 3.33718 19.8672C3.38531 20.075 3.54937 20.2391 3.75718 20.2872C3.96718 20.3353 4.18374 20.2588 4.31937 20.0925L6.69937 17.7125C6.86562 17.5528 6.91593 17.3057 6.82624 17.0935C6.73874 16.8813 6.52656 16.7457 6.29687 16.75C6.27937 16.75 6.26187 16.75 6.24437 16.75ZM17.2694 16.75C17.0594 16.7872 16.8909 16.9403 16.8319 17.1438C16.7728 17.3494 16.8341 17.5682 16.9894 17.7125L19.3694 20.0925C19.505 20.2588 19.7216 20.3353 19.9316 20.2872C20.1394 20.2391 20.3034 20.075 20.3516 19.8672C20.3997 19.6572 20.3231 19.4407 20.1569 19.305L17.7769 16.925C17.6719 16.8135 17.5275 16.7522 17.3744 16.75C17.3569 16.75 17.3394 16.75 17.3219 16.75C17.3044 16.75 17.2869 16.75 17.2694 16.75ZM11.7919 19.0425C11.7678 19.0469 11.7437 19.0535 11.7219 19.06C11.4616 19.1191 11.2778 19.3532 11.2844 19.62V22.98C11.2822 23.1813 11.3872 23.3694 11.5622 23.4722C11.7372 23.5728 11.9516 23.5728 12.1266 23.4722C12.3016 23.3694 12.4066 23.1813 12.4044 22.98V19.62C12.4109 19.4582 12.3453 19.3028 12.2294 19.1935C12.1112 19.0819 11.9516 19.0272 11.7919 19.0425Z" fill="#3B3735"/>
</svg>
