<svg width="34" height="34" viewBox="0 0 34 34" fill="none" xmlns="http://www.w3.org/2000/svg">
<path d="M2.83341 32.2293C2.55007 32.2293 2.28087 32.116 2.08253 31.9177C1.81337 31.6485 1.7001 31.2518 1.79927 30.8835L3.58428 24.211C2.39428 22.001 1.77091 19.5077 1.77091 16.986C1.77091 8.58517 8.59924 1.75684 17.0001 1.75684C25.4009 1.75684 32.2292 8.58517 32.2292 16.986C32.2292 25.3868 25.4009 32.2152 17.0001 32.2152C14.4359 32.2152 11.9284 31.5777 9.69011 30.3593L3.11676 32.1869C3.01759 32.2152 2.93257 32.2293 2.83341 32.2293ZM9.83174 28.1635C10.0159 28.1635 10.2001 28.2202 10.3701 28.3052C12.3676 29.481 14.6626 30.1043 17.0001 30.1043C24.2251 30.1043 30.1042 24.2252 30.1042 17.0002C30.1042 9.77518 24.2251 3.89602 17.0001 3.89602C9.77507 3.89602 3.89591 9.77518 3.89591 17.0002C3.89591 19.3093 4.50506 21.5618 5.65256 23.5452C5.79423 23.786 5.83675 24.0835 5.76592 24.3527L4.34925 29.651L9.56257 28.206C9.64757 28.1777 9.74674 28.1635 9.83174 28.1635Z" fill="#3B3735"/>
<path d="M20.8816 25.1603C20.0033 25.1603 19.0966 24.9619 18.1475 24.5511C17.255 24.1686 16.3625 23.6586 15.4983 23.0211C14.6483 22.3977 13.8125 21.6894 13.0475 20.9244C12.2825 20.1452 11.5741 19.3236 10.9508 18.4736C10.3133 17.5811 9.80327 16.7027 9.43494 15.8386C9.03827 14.9036 8.83997 13.9827 8.83997 13.1044C8.83997 12.4811 8.95327 11.8861 9.16577 11.3336C9.39244 10.7527 9.76079 10.2286 10.2425 9.77523C11.1491 8.88273 12.4525 8.55693 13.4867 9.05276C13.8408 9.2086 14.1383 9.46359 14.365 9.80359L16.0083 12.1127C16.1783 12.3394 16.3058 12.5802 16.405 12.8211C16.5183 13.1044 16.5892 13.3878 16.5892 13.6569C16.5892 14.0253 16.49 14.3936 16.2916 14.7194C16.1641 14.9319 15.98 15.1869 15.7391 15.4278L15.555 15.6261C15.64 15.7394 15.7391 15.8811 15.8949 16.0511C16.1924 16.3911 16.5183 16.7594 16.8724 17.1136C17.2266 17.4536 17.5808 17.7936 17.9349 18.0911C18.1049 18.2327 18.2467 18.3461 18.36 18.4169L18.5583 18.2186C18.8133 17.9636 19.0683 17.7653 19.3233 17.6378C19.7908 17.3403 20.5133 17.2694 21.1508 17.5386C21.3775 17.6236 21.6041 17.7511 21.845 17.9211L24.2109 19.5927C24.5367 19.8194 24.7916 20.1311 24.9616 20.4852C25.1033 20.8394 25.16 21.1511 25.16 21.4769C25.16 21.9019 25.0608 22.3127 24.8766 22.7094C24.6925 23.0777 24.4799 23.4036 24.2249 23.7011C23.7716 24.1969 23.2475 24.5653 22.6808 24.8061C22.1142 25.0469 21.505 25.1603 20.8816 25.1603ZM12.4524 10.9652C12.3674 10.9652 12.0842 10.9652 11.73 11.3194C11.4609 11.5744 11.2766 11.8436 11.1491 12.1411C11.0216 12.4386 10.965 12.7786 10.965 13.1186C10.965 13.7136 11.1066 14.3511 11.3899 15.0311C11.6874 15.7394 12.1266 16.4903 12.665 17.2411C13.2175 17.9919 13.8408 18.7427 14.535 19.4369C15.2292 20.1169 15.9658 20.7544 16.7308 21.3211C17.4675 21.8594 18.2183 22.2844 18.9692 22.6102C20.0458 23.0777 21.0375 23.1911 21.845 22.8511C22.1283 22.7377 22.3833 22.5394 22.6383 22.2844C22.7658 22.1428 22.865 22.0011 22.95 21.8169C22.9925 21.7177 23.0208 21.6044 23.0208 21.5052C23.0208 21.4769 23.0208 21.4344 22.9783 21.3494L20.6125 19.7061C20.5133 19.6352 20.4141 19.5786 20.3291 19.5502C20.2724 19.5786 20.1875 19.6211 20.0317 19.7769L19.4933 20.3152C19.0825 20.7261 18.4308 20.8394 17.9067 20.6552L17.6517 20.5419C17.3258 20.3719 16.9575 20.1169 16.5466 19.7628C16.15 19.4228 15.7675 19.0686 15.3567 18.6719C14.96 18.2611 14.6058 17.8786 14.2658 17.4819C13.8975 17.0427 13.6425 16.6886 13.4725 16.3911L13.3167 16.0227C13.2742 15.8811 13.26 15.7252 13.26 15.5836C13.26 15.1869 13.4017 14.8327 13.6708 14.5494L14.2092 13.9969C14.365 13.8411 14.4217 13.7561 14.45 13.6994C14.4075 13.6003 14.3508 13.5152 14.28 13.4161L12.6224 11.0786L12.4524 10.9652Z" fill="#3B3735"/>
</svg>
