<svg width="64" height="36" viewBox="0 0 64 36" fill="none" xmlns="http://www.w3.org/2000/svg">
<g clip-path="url(#clip0_415_772)">
<rect width="64" height="36" rx="18" fill="#E2E8F0"/>
<g filter="url(#filter0_d_415_772)">
<rect x="4" y="4" width="28" height="28" rx="14" fill="white" shape-rendering="crispEdges"/>
<path d="M17.7919 6.00253C17.7678 6.0069 17.7437 6.01347 17.7219 6.02003C17.4616 6.07909 17.2778 6.31315 17.2844 6.58003V9.94003C17.2822 10.1413 17.3872 10.3294 17.5622 10.4322C17.7372 10.5328 17.9516 10.5328 18.1266 10.4322C18.3016 10.3294 18.4066 10.1413 18.4044 9.94003V6.58003C18.4109 6.41815 18.3453 6.26284 18.2294 6.15347C18.1112 6.0419 17.9516 5.98722 17.7919 6.00253ZM9.81187 9.29253C9.60187 9.32972 9.43343 9.48284 9.37437 9.68628C9.31531 9.8919 9.37656 10.1107 9.53187 10.255L11.9119 12.635C12.0475 12.8013 12.2641 12.8778 12.4741 12.8297C12.6819 12.7816 12.8459 12.6175 12.8941 12.4097C12.9422 12.1997 12.8656 11.9832 12.6994 11.8475L10.3194 9.46753C10.2034 9.34284 10.035 9.2794 9.86437 9.29253C9.84687 9.29253 9.82937 9.29253 9.81187 9.29253ZM25.7019 9.29253C25.575 9.31003 25.4569 9.37347 25.3694 9.46753L22.9894 11.8475C22.8231 11.9832 22.7466 12.1997 22.7947 12.4097C22.8428 12.6175 23.0069 12.7816 23.2147 12.8297C23.4247 12.8778 23.6412 12.8013 23.7769 12.635L26.1569 10.255C26.3319 10.0888 26.3822 9.82847 26.2794 9.60972C26.1744 9.38878 25.9425 9.2619 25.7019 9.29253ZM17.7919 12.18C17.7744 12.1844 17.7569 12.191 17.7394 12.1975C17.7044 12.1997 17.6694 12.2063 17.6344 12.215C17.6278 12.2216 17.6234 12.226 17.6169 12.2325C14.6462 12.3594 12.2444 14.7788 12.2444 17.78C12.2444 20.8622 14.7622 23.38 17.8444 23.38C20.9266 23.38 23.4444 20.8622 23.4444 17.78C23.4444 14.7897 21.0622 12.3791 18.1069 12.2325C18.0872 12.2325 18.0741 12.215 18.0544 12.215C17.9975 12.1932 17.9384 12.1822 17.8794 12.18C17.8684 12.18 17.8553 12.18 17.8444 12.18C17.8269 12.18 17.8094 12.18 17.7919 12.18ZM17.8094 13.3C17.8203 13.3 17.8334 13.3 17.8444 13.3C17.8619 13.3 17.8794 13.3 17.8969 13.3C20.3469 13.3285 22.3244 15.3235 22.3244 17.78C22.3244 20.2563 20.3206 22.26 17.8444 22.26C15.3703 22.26 13.3644 20.2563 13.3644 17.78C13.3644 15.3169 15.3506 13.3197 17.8094 13.3ZM6.48687 17.22C6.17843 17.2638 5.96187 17.5503 6.00562 17.8588C6.04937 18.1672 6.33593 18.3838 6.64437 18.34H10.0044C10.2056 18.3422 10.3937 18.2372 10.4966 18.0622C10.5972 17.8872 10.5972 17.6728 10.4966 17.4978C10.3937 17.3228 10.2056 17.2178 10.0044 17.22H6.64437C6.62687 17.22 6.60937 17.22 6.59187 17.22C6.57437 17.22 6.55687 17.22 6.53937 17.22C6.52187 17.22 6.50437 17.22 6.48687 17.22ZM25.5269 17.22C25.2184 17.2638 25.0019 17.5503 25.0456 17.8588C25.0894 18.1672 25.3759 18.3838 25.6844 18.34H29.0444C29.2456 18.3422 29.4337 18.2372 29.5366 18.0622C29.6372 17.8872 29.6372 17.6728 29.5366 17.4978C29.4337 17.3228 29.2456 17.2178 29.0444 17.22H25.6844C25.6669 17.22 25.6494 17.22 25.6319 17.22C25.6144 17.22 25.5969 17.22 25.5794 17.22C25.5619 17.22 25.5444 17.22 25.5269 17.22ZM12.2444 22.75C12.1175 22.7675 11.9994 22.831 11.9119 22.925L9.53187 25.305C9.36562 25.4407 9.28906 25.6572 9.33718 25.8672C9.38531 26.075 9.54937 26.2391 9.75718 26.2872C9.96718 26.3353 10.1837 26.2588 10.3194 26.0925L12.6994 23.7125C12.8656 23.5528 12.9159 23.3057 12.8262 23.0935C12.7387 22.8813 12.5266 22.7457 12.2969 22.75C12.2794 22.75 12.2619 22.75 12.2444 22.75ZM23.2694 22.75C23.0594 22.7872 22.8909 22.9403 22.8319 23.1438C22.7728 23.3494 22.8341 23.5682 22.9894 23.7125L25.3694 26.0925C25.505 26.2588 25.7216 26.3353 25.9316 26.2872C26.1394 26.2391 26.3034 26.075 26.3516 25.8672C26.3997 25.6572 26.3231 25.4407 26.1569 25.305L23.7769 22.925C23.6719 22.8135 23.5275 22.7522 23.3744 22.75C23.3569 22.75 23.3394 22.75 23.3219 22.75C23.3044 22.75 23.2869 22.75 23.2694 22.75ZM17.7919 25.0425C17.7678 25.0469 17.7437 25.0535 17.7219 25.06C17.4616 25.1191 17.2778 25.3532 17.2844 25.62V28.98C17.2822 29.1813 17.3872 29.3694 17.5622 29.4722C17.7372 29.5728 17.9516 29.5728 18.1266 29.4722C18.3016 29.3694 18.4066 29.1813 18.4044 28.98V25.62C18.4109 25.4582 18.3453 25.3028 18.2294 25.1935C18.1112 25.0819 17.9516 25.0272 17.7919 25.0425Z" fill="#3B3735"/>
</g>
</g>
<defs>
<filter id="filter0_d_415_772" x="0" y="4" width="36" height="36" filterUnits="userSpaceOnUse" color-interpolation-filters="sRGB">
<feFlood flood-opacity="0" result="BackgroundImageFix"/>
<feColorMatrix in="SourceAlpha" type="matrix" values="0 0 0 0 0 0 0 0 0 0 0 0 0 0 0 0 0 0 127 0" result="hardAlpha"/>
<feOffset dy="4"/>
<feGaussianBlur stdDeviation="2"/>
<feComposite in2="hardAlpha" operator="out"/>
<feColorMatrix type="matrix" values="0 0 0 0 0 0 0 0 0 0 0 0 0 0 0 0 0 0 0.12 0"/>
<feBlend mode="normal" in2="BackgroundImageFix" result="effect1_dropShadow_415_772"/>
<feBlend mode="normal" in="SourceGraphic" in2="effect1_dropShadow_415_772" result="shape"/>
</filter>
<clipPath id="clip0_415_772">
<rect width="64" height="36" rx="18" fill="white"/>
</clipPath>
</defs>
</svg>
