<svg width="48" height="48" viewBox="0 0 48 48" fill="none" xmlns="http://www.w3.org/2000/svg">
<path d="M19.14 37.6402C18.76 37.6402 18.38 37.5002 18.08 37.2002L5.94 25.0602C5.36 24.4802 5.36 23.5202 5.94 22.9402L18.08 10.8002C18.66 10.2202 19.62 10.2202 20.2 10.8002C20.78 11.3802 20.78 12.3402 20.2 12.9202L9.12 24.0002L20.2 35.0802C20.78 35.6602 20.78 36.6202 20.2 37.2002C19.92 37.5002 19.52 37.6402 19.14 37.6402Z" fill="#3B3735"/>
<path d="M41 25.5H7.33997C6.51997 25.5 5.83997 24.82 5.83997 24C5.83997 23.18 6.51997 22.5 7.33997 22.5H41C41.82 22.5 42.5 23.18 42.5 24C42.5 24.82 41.82 25.5 41 25.5Z" fill="#3B3735"/>
</svg>
