<svg width="32" height="32" viewBox="0 0 32 32" fill="none" xmlns="http://www.w3.org/2000/svg">
<path d="M16 17.0003C11.7733 17.0003 8.33331 13.5603 8.33331 9.33366C8.33331 5.10699 11.7733 1.66699 16 1.66699C20.2266 1.66699 23.6666 5.10699 23.6666 9.33366C23.6666 13.5603 20.2266 17.0003 16 17.0003ZM16 3.66699C12.88 3.66699 10.3333 6.21366 10.3333 9.33366C10.3333 12.4537 12.88 15.0003 16 15.0003C19.12 15.0003 21.6666 12.4537 21.6666 9.33366C21.6666 6.21366 19.12 3.66699 16 3.66699Z" fill="white"/>
<path d="M4.54688 30.3333C4.00021 30.3333 3.54688 29.88 3.54688 29.3333C3.54688 23.64 9.13354 19 16.0002 19C17.3469 19 18.6669 19.1734 19.9469 19.5334C20.4802 19.68 20.7869 20.2267 20.6402 20.76C20.4936 21.2933 19.9469 21.6 19.4135 21.4534C18.3202 21.1467 17.1735 21 16.0002 21C10.2402 21 5.54688 24.7333 5.54688 29.3333C5.54688 29.88 5.09354 30.3333 4.54688 30.3333Z" fill="white"/>
<path d="M25.9997 24.9736H22.013C21.4664 24.9736 21.013 24.5203 21.013 23.9736C21.013 23.427 21.4664 22.9736 22.013 22.9736H25.9997C26.5464 22.9736 26.9997 23.427 26.9997 23.9736C26.9997 24.5203 26.5464 24.9736 25.9997 24.9736Z" fill="white"/>
<path d="M24 27.013C23.4533 27.013 23 26.5597 23 26.013V22.0264C23 21.4797 23.4533 21.0264 24 21.0264C24.5467 21.0264 25 21.4797 25 22.0264V26.013C25 26.573 24.5467 27.013 24 27.013Z" fill="white"/>
</svg>
