<svg width="35" height="32" viewBox="0 0 35 32" fill="none" xmlns="http://www.w3.org/2000/svg">
<path d="M31.3125 0.5H3.6875C1.92709 0.5 0.5 1.59572 0.5 2.94737V29.0526C0.5 30.4043 1.92709 31.5 3.6875 31.5H31.3125C33.0729 31.5 34.5 30.4043 34.5 29.0526V2.94737C34.5 1.59572 33.0729 0.5 31.3125 0.5Z" stroke="#808080" stroke-linecap="round" stroke-linejoin="round"/>
<path d="M17 4.5C13.5875 6.39 9.9125 7.23 6.5 7.86V13.74C6.5 18.99 10.4375 23.19 17 25.5C23.5625 23.19 27.5 18.99 27.5 13.74V7.86C24.0875 7.23 20.4125 6.39 17 4.5Z" stroke="#808080" stroke-linecap="round" stroke-linejoin="round"/>
<path d="M17 14C18.933 14 20.5 12.8807 20.5 11.5C20.5 10.1193 18.933 9 17 9C15.067 9 13.5 10.1193 13.5 11.5C13.5 12.8807 15.067 14 17 14Z" stroke="#808080" stroke-linecap="round" stroke-linejoin="round"/>
<path d="M11.5 18.5C11.5 15.9545 13.975 14.5 17 14.5C20.025 14.5 22.5 15.9545 22.5 18.5" stroke="#808080" stroke-linecap="round" stroke-linejoin="round"/>
<path d="M8.5 27.5H25.5" stroke="#808080" stroke-linecap="round" stroke-linejoin="round"/>
<path d="M13.5 29.5H21.5" stroke="#808080" stroke-linecap="round" stroke-linejoin="round"/>
</svg>
