<svg width="34" height="34" viewBox="0 0 34 34" fill="none" xmlns="http://www.w3.org/2000/svg">
<path d="M17 18.0622C12.5092 18.0622 8.85417 14.4072 8.85417 9.91634C8.85417 5.42551 12.5092 1.77051 17 1.77051C21.4908 1.77051 25.1458 5.42551 25.1458 9.91634C25.1458 14.4072 21.4908 18.0622 17 18.0622ZM17 3.89551C13.685 3.89551 10.9792 6.60134 10.9792 9.91634C10.9792 13.2313 13.685 15.9372 17 15.9372C20.315 15.9372 23.0208 13.2313 23.0208 9.91634C23.0208 6.60134 20.315 3.89551 17 3.89551Z" fill="#808080"/>
<path d="M29.1694 32.2292C28.5885 32.2292 28.1069 31.7475 28.1069 31.1667C28.1069 26.2792 23.1202 22.3125 17.0002 22.3125C10.8802 22.3125 5.89355 26.2792 5.89355 31.1667C5.89355 31.7475 5.41189 32.2292 4.83105 32.2292C4.25022 32.2292 3.76855 31.7475 3.76855 31.1667C3.76855 25.1175 9.70438 20.1875 17.0002 20.1875C24.2961 20.1875 30.2319 25.1175 30.2319 31.1667C30.2319 31.7475 29.7502 32.2292 29.1694 32.2292Z" fill="#808080"/>
</svg>
